<?xml version="1.0" encoding="utf-8"?>
<!-- Generator: Adobe Illustrator 22.1.0, SVG Export Plug-In . SVG Version: 6.00 Build 0)  -->
<svg version="1.1" id="Layer_1" xmlns="http://www.w3.org/2000/svg" xmlns:xlink="http://www.w3.org/1999/xlink" x="0px" y="0px"
	 viewBox="0 0 48 48" style="enable-background:new 0 0 48 48;" xml:space="preserve">
<style type="text/css">
	.st0{fill:url(#SVGID_1_);}
	.st1{fill:none;stroke:#808080;stroke-miterlimit:10;}
	.st2{fill:none;stroke:#808080;stroke-miterlimit:10;stroke-dasharray:2.4067,2.4067,2.4067,2.4067;}
	.st3{fill:none;stroke:#808080;stroke-miterlimit:10;stroke-dasharray:2.4067,2.4067,2.4067,2.4067,2.4067,2.4067;}
	.st4{fill:none;stroke:#808080;stroke-miterlimit:10;stroke-dasharray:2.0886,2.0886,2.0886,2.0886;}
	.st5{fill:none;stroke:#808080;stroke-miterlimit:10;stroke-dasharray:2.0886,2.0886,2.0886,2.0886,2.0886,2.0886;}
	.st6{fill:none;stroke:#808080;stroke-miterlimit:10;stroke-dasharray:2.0826,2.0826,2.0826,2.0826;}
	.st7{fill:none;stroke:#808080;stroke-miterlimit:10;stroke-dasharray:2.0826,2.0826,2.0826,2.0826,2.0826,2.0826;}
	.st8{fill:#FFFFFF;stroke:#0000FF;stroke-width:0.4286;stroke-miterlimit:10;}
</style>
<g>
	
		<radialGradient id="SVGID_1_" cx="24" cy="24" r="44.8779" gradientTransform="matrix(0.9998 2.130324e-02 -2.158066e-02 1.0128 0.5234 -0.8183)" gradientUnits="userSpaceOnUse">
		<stop  offset="0" style="stop-color:#FFFFFF"/>
		<stop  offset="0.1045" style="stop-color:#FAFAFA"/>
		<stop  offset="0.2282" style="stop-color:#ECECEC"/>
		<stop  offset="0.3616" style="stop-color:#D4D4D4"/>
		<stop  offset="0.5018" style="stop-color:#B2B2B2"/>
		<stop  offset="0.6474" style="stop-color:#888888"/>
		<stop  offset="0.7976" style="stop-color:#535353"/>
		<stop  offset="0.9487" style="stop-color:#161616"/>
		<stop  offset="1" style="stop-color:#000000"/>
	</radialGradient>
	<rect class="st0" width="48" height="48"/>
</g>
<g>
	<g>
		<line class="st1" x1="8.9" y1="26" x2="9.8" y2="25.6"/>
		<line class="st2" x1="12" y1="24.5" x2="19.5" y2="20.8"/>
		<line class="st3" x1="20.6" y1="20.3" x2="32.5" y2="14.5"/>
		<line class="st1" x1="33.6" y1="13.9" x2="34.5" y2="13.5"/>
	</g>
</g>
<g>
	<path d="M24,9.5c8,0,14.5,6.5,14.5,14.5S32,38.5,24,38.5S9.5,32,9.5,24S16,9.5,24,9.5 M24,8.5C15.4,8.5,8.5,15.4,8.5,24
		S15.4,39.5,24,39.5S39.5,32.6,39.5,24S32.6,8.5,24,8.5L24,8.5z"/>
</g>
<g>
	<g>
		<line class="st1" x1="8.9" y1="26" x2="9.8" y2="26.5"/>
		<line class="st4" x1="11.6" y1="27.5" x2="18" y2="31"/>
		<line class="st5" x1="18.9" y1="31.6" x2="29" y2="37.1"/>
		<line class="st1" x1="29.9" y1="37.6" x2="30.8" y2="38.1"/>
	</g>
</g>
<g>
	<g>
		<line class="st1" x1="30.8" y1="38.1" x2="30.9" y2="37.1"/>
		<line class="st6" x1="31.2" y1="35.1" x2="32.3" y2="27.9"/>
		<line class="st7" x1="32.5" y1="26.8" x2="34.2" y2="15.5"/>
		<line class="st1" x1="34.3" y1="14.5" x2="34.5" y2="13.5"/>
	</g>
</g>
<circle class="st8" cx="8.9" cy="26" r="1.5"/>
<circle class="st8" cx="34.5" cy="13.5" r="1.5"/>
<circle class="st8" cx="30.8" cy="38.1" r="1.5"/>
</svg>
