<?xml version="1.0" encoding="utf-8"?>
<!-- Generator: Adobe Illustrator 22.1.0, SVG Export Plug-In . SVG Version: 6.00 Build 0)  -->
<svg version="1.1" id="Layer_1" xmlns="http://www.w3.org/2000/svg" xmlns:xlink="http://www.w3.org/1999/xlink" x="0px" y="0px"
	 viewBox="0 0 48 48" style="enable-background:new 0 0 48 48;" xml:space="preserve">
<style type="text/css">
	.st0{fill:url(#SVGID_1_);}
	.st1{fill:none;stroke:#000000;stroke-width:3;stroke-linecap:round;stroke-miterlimit:10;}
	.st2{fill:none;stroke:#000000;stroke-width:3;stroke-miterlimit:10;}
</style>
<g>
	
		<radialGradient id="SVGID_1_" cx="24" cy="24" r="44.8779" gradientTransform="matrix(0.9998 2.130324e-02 -2.158066e-02 1.0128 0.5234 -0.8183)" gradientUnits="userSpaceOnUse">
		<stop  offset="0" style="stop-color:#FFFFFF"/>
		<stop  offset="0.1045" style="stop-color:#FAFAFA"/>
		<stop  offset="0.2282" style="stop-color:#ECECEC"/>
		<stop  offset="0.3616" style="stop-color:#D4D4D4"/>
		<stop  offset="0.5018" style="stop-color:#B2B2B2"/>
		<stop  offset="0.6474" style="stop-color:#888888"/>
		<stop  offset="0.7976" style="stop-color:#535353"/>
		<stop  offset="0.9487" style="stop-color:#161616"/>
		<stop  offset="1" style="stop-color:#000000"/>
	</radialGradient>
	<rect class="st0" width="48" height="48"/>
</g>
<g>
	<g>
		<path class="st1" d="M37.6,30.3l4-4.7c0.7-0.8,0.7-2,0-2.9l-4-5.1"/>
		<line class="st2" x1="24" y1="24" x2="40.6" y2="24"/>
	</g>
	<g>
		<path class="st1" d="M17.7,37.6l4.7,4c0.8,0.7,2,0.7,2.9,0l5.1-4"/>
		<line class="st2" x1="24" y1="24" x2="24" y2="40.6"/>
	</g>
	<g>
		<path class="st1" d="M10.4,17.7l-4,4.7c-0.7,0.8-0.7,2,0,2.9l4,5.1"/>
		<line class="st2" x1="24" y1="24" x2="7.4" y2="24"/>
	</g>
	<g>
		<path class="st1" d="M30.3,10.4l-4.7-4c-0.8-0.7-2-0.7-2.9,0l-5.1,4"/>
		<line class="st2" x1="24" y1="24" x2="24" y2="7.4"/>
	</g>
</g>
</svg>
